<svg xmlns="http://www.w3.org/2000/svg" xmlns:xlink="http://www.w3.org/1999/xlink" viewBox="0 0 330.41 365.7"><defs><style>.cls-1{fill:none;}.cls-1,.cls-2,.cls-3,.cls-4{stroke:#1d1d1b;}.cls-1,.cls-2,.cls-3,.cls-4,.cls-5{stroke-miterlimit:10;}.cls-2{fill:url(#Dégradé_sans_nom_3);}.cls-3,.cls-5{fill:#2a2a55;}.cls-4{fill:url(#Nouvelle_nuance_de_dégradé_1_2);}.cls-5{stroke:#8d424b;}</style><radialGradient id="Dégradé_sans_nom_3" cx="-208.81" cy="-71.84" r="55.92" gradientTransform="translate(153.22 140.07) scale(0.6 0.53)" gradientUnits="userSpaceOnUse"><stop offset="0" stop-color="#ffef26"/><stop offset="0.02" stop-color="#ffea21"/><stop offset="0.1" stop-color="#fed70f"/><stop offset="0.19" stop-color="#fdcc04"/><stop offset="0.28" stop-color="#fdc800"/><stop offset="0.67" stop-color="#f18f34"/><stop offset="0.89" stop-color="#e95f32"/><stop offset="1" stop-color="#e3312d"/></radialGradient><radialGradient id="Nouvelle_nuance_de_dégradé_1_2" cx="-41.16" cy="66.66" fx="-4.928429449162969" fy="-157.96654640244722" r="227.52" gradientTransform="translate(153.22 140.07) scale(0.6 0.53)" gradientUnits="userSpaceOnUse"><stop offset="0" stop-color="#2581c4"/><stop offset="0.42" stop-color="#2581c4" stop-opacity="0.99"/><stop offset="0.58" stop-color="#2581c4" stop-opacity="0.96"/><stop offset="0.69" stop-color="#2581c4" stop-opacity="0.9"/><stop offset="0.77" stop-color="#2581c4" stop-opacity="0.81"/><stop offset="0.85" stop-color="#2581c4" stop-opacity="0.7"/><stop offset="0.91" stop-color="#2581c4" stop-opacity="0.56"/><stop offset="0.97" stop-color="#2581c4" stop-opacity="0.4"/><stop offset="0.99" stop-color="#2581c4" stop-opacity="0.34"/></radialGradient></defs><g id="Calque_2" data-name="Calque 2"><g id="Calque_1-2" data-name="Calque 1"><path class="cls-1" d="M51.52,79.92c0,8.31-7.54,15-16.84,15s-16.85-6.73-16.85-15a14.49,14.49,0,0,1,6.32-11.74,18.45,18.45,0,0,1,21.06,0A14.48,14.48,0,0,1,51.52,79.92Z"/><path class="cls-2" d="M19.82,111.93C11.62,111.93,5,117.88,5,125.2s6.66,13.27,14.86,13.27,14.86-5.95,14.86-13.27S28,111.93,19.82,111.93ZM45.21,68.18a18.45,18.45,0,0,0-21.06,0,14.49,14.49,0,0,0-6.32,11.74c0,8.31,7.54,15,16.85,15s16.84-6.73,16.84-15A14.48,14.48,0,0,0,45.21,68.18Z"/><path class="cls-3" d="M239.62,329.39v35.8h-2.24A258.25,258.25,0,0,1,122.3,338.61q-7.48-3.72-14.62-7.9C71,309.25,41.41,279,22.69,243.2A194.74,194.74,0,0,1,5,194.79a190.13,190.13,0,0,1-4.45-39.1H33.36c0,31.91,10.21,61.81,28.05,87.51,15.26,22,36.1,40.92,60.89,55.38C155.61,318,196,329.39,239.62,329.39Z"/><path class="cls-4" d="M122.3,85.76c-17.92,19.55-28.5,43.74-28.5,69.93s10.58,50.38,28.5,69.93a132.64,132.64,0,0,0,19.77,17.58c25.84,18.78,60,30.22,97.55,30.22V305c-44.86,0-85.87-13.71-117.32-36.38a164.94,164.94,0,0,1-28-25.38c-21.41-24.59-34-54.82-34-87.51s12.62-62.92,34-87.51c8.13-9.33,19-17.07,30.53-24.3,34.72-21.82,45.85-22.83,84.77-34.53L227.27.61c10.36,10.42,8,36.05-7.38,38.4-.33.05-.65.1-1,.13-29.33,3.37-55.85,13.78-76.84,29A132.08,132.08,0,0,0,122.3,85.76Z"/><path class="cls-5" d="M329.91,155.69H239.62v80.62c-49.87,0-90.29-36.1-90.29-80.62s40.42-80.61,90.29-80.61S329.91,111.17,329.91,155.69Z"/></g></g></svg>